<svg width="35" height="25" viewBox="0 0 35 25" fill="none" xmlns="http://www.w3.org/2000/svg">
<path d="M27.1846 0.746277V4.67789H22.3122C20.7706 4.67789 19.0685 5.2391 17.6448 6.31172C16.2213 7.38434 14.6743 8.97557 12.2182 11.5924C9.75109 14.2209 8.37718 15.8093 7.52038 16.5232C6.66358 17.237 6.80139 17.1757 5.55439 17.1757H0.666687V20.3002H5.55439C7.4266 20.3002 9.30969 19.7166 10.6406 18.6078C11.9716 17.4989 13.2278 15.9629 15.6483 13.3841C18.0799 10.7934 19.6258 9.2602 20.6212 8.51023C21.6165 7.76028 21.6593 7.80235 22.3123 7.80235H27.1846V11.9048L34.6667 6.32634L27.1846 0.746277ZM0.666687 4.67787V7.80233H5.55439C6.80139 7.80233 6.66358 7.73946 7.52038 8.45326C8.07163 8.91251 8.97974 9.88647 10.1126 11.1139C10.2661 10.9497 10.3385 10.8705 10.501 10.6973C11.1181 10.0399 11.6786 9.44666 12.1964 8.90565C12.3766 8.71737 12.5276 8.56884 12.6983 8.39304C11.9327 7.56811 11.2951 6.91386 10.6406 6.36865C9.30969 5.25983 7.4266 4.67787 5.55439 4.67787H0.666687ZM27.1846 13.1611V17.1757H22.3122C21.6593 17.1757 21.6165 17.2162 20.6211 16.4662C19.9627 15.9701 19.0303 15.0907 17.7932 13.8299C17.6436 13.9882 17.5225 14.1135 17.3655 14.2807C16.4993 15.2036 15.9021 15.8694 15.2752 16.5589C16.1647 17.4375 16.9219 18.12 17.6449 18.6647C19.0684 19.7373 20.7706 20.3001 22.3122 20.3001H27.1846V24.3196L34.6667 18.7412L27.1846 13.1611Z" fill="#D4AF37"/>
</svg>
