<svg width="24" height="23" viewBox="0 0 24 23" fill="none" xmlns="http://www.w3.org/2000/svg">
<path fill-rule="evenodd" clip-rule="evenodd" d="M17.3333 21.9249L5.33329 14.9969C2.66663 13.4569 2.66663 9.60891 5.33329 8.06891L17.3333 1.14091C20 -0.399092 23.3333 1.52491 23.3333 4.60491V18.4609C23.3333 21.5409 20 23.4649 17.3333 21.9249ZM0.666626 20.8662C0.666626 21.2199 0.807102 21.559 1.05715 21.8091C1.3072 22.0591 1.64634 22.1996 1.99996 22.1996C2.35358 22.1996 2.69272 22.0591 2.94277 21.8091C3.19282 21.559 3.33329 21.2199 3.33329 20.8662V2.19958C3.33329 1.84595 3.19282 1.50681 2.94277 1.25677C2.69272 1.00672 2.35358 0.866242 1.99996 0.866242C1.64634 0.866242 1.3072 1.00672 1.05715 1.25677C0.807102 1.50681 0.666626 1.84595 0.666626 2.19958V20.8662Z" fill="#2A7343"/>
</svg>
