<svg width="32" height="33" viewBox="0 0 32 33" fill="none" xmlns="http://www.w3.org/2000/svg">
<g clip-path="url(#clip0_12_30)">
<path d="M31.9973 8.91467L31.9987 8.78534C31.9987 7.79467 31.8813 6.83201 31.6613 5.91067L31.6787 5.99467C31.2813 4.32295 30.2463 2.8727 28.7947 1.95334L28.768 1.93734C28.0197 1.45477 27.1824 1.12699 26.3053 0.973338L26.2653 0.968005C25.5814 0.847512 24.889 0.780642 24.1947 0.768005H24.18C24.1267 0.768005 24.0693 0.754671 24.0147 0.750671H7.98133C7.77867 0.764005 7.58133 0.773338 7.37467 0.785338C6.35468 0.805168 5.34484 0.992092 4.38533 1.33867L4.45067 1.31867C3.60162 1.64013 2.82668 2.13063 2.1728 2.76045C1.51893 3.39026 0.999727 4.14627 0.646667 4.98267L0.630667 5.02667C0.404 5.572 0.234667 6.20667 0.150667 6.86667L0.146667 6.90401C0.0786667 7.36134 0.0306667 7.90534 0.0133333 8.45734V8.47867C0.0133333 8.52134 0.004 8.56134 0 8.60267V24.9013L0.036 25.4667C0.0626667 26.6147 0.305333 27.6973 0.724 28.688L0.702667 28.6307C1.09767 29.5257 1.68442 30.3229 2.42146 30.9662C3.1585 31.6095 4.02782 32.083 4.968 32.3533L5.01467 32.3653C5.51733 32.5133 6.104 32.6213 6.70933 32.668L6.73867 32.6693C7.47867 32.74 8.21867 32.7493 8.96133 32.7493H23.6653C24.4049 32.7485 25.1307 32.7009 25.8427 32.6067L25.7587 32.616C26.8621 32.4983 27.9222 32.1224 28.8533 31.5187L28.8253 31.536C29.9155 30.8268 30.7794 29.8199 31.3147 28.6347L31.332 28.592C31.5533 28.0813 31.7253 27.4867 31.82 26.868L31.8253 26.8267C31.9607 25.9222 32.0182 25.0077 31.9973 24.0933V8.91867V8.91467ZM23.432 14.2347V21.8507L23.4333 21.9613C23.4333 22.504 23.3133 23.02 23.0973 23.4813L23.1067 23.4587C22.9292 23.8286 22.6736 24.1557 22.3576 24.4174C22.0415 24.6791 21.6725 24.8692 21.276 24.9747L21.256 24.9787C20.7958 25.1117 20.3213 25.1891 19.8427 25.2093H19.8293C19.7902 25.212 19.7476 25.2129 19.7013 25.212C19.1362 25.2125 18.5876 25.0211 18.1454 24.6692C17.7032 24.3172 17.3937 23.8255 17.2674 23.2746C17.1412 22.7238 17.2057 22.1463 17.4505 21.6369C17.6952 21.1275 18.1057 20.7163 18.6147 20.4707L18.6293 20.464C19.02 20.2773 19.476 20.128 19.9507 20.0373L19.9867 20.032C20.4907 19.9227 20.9973 19.828 21.4987 19.712C21.6693 19.6835 21.8268 19.6022 21.9488 19.4795C22.0708 19.3567 22.1512 19.1988 22.1787 19.028V19.024C22.1955 18.941 22.2045 18.8567 22.2053 18.772V11.508C22.205 11.4223 22.1929 11.3371 22.1693 11.2547L22.1707 11.2613C22.1528 11.1696 22.1023 11.0875 22.0285 11.0301C21.9547 10.9728 21.8626 10.9441 21.7693 10.9493C21.532 10.9667 21.3173 10.9973 21.1053 11.0427L21.1373 11.0373C20.124 11.2373 19.1107 11.44 18.0973 11.6453L13.164 12.6427C13.1427 12.6427 13.1213 12.656 13.1 12.66C12.9449 12.68 12.8038 12.7598 12.7067 12.8823C12.6096 13.0049 12.5641 13.1605 12.58 13.316V13.3133V23.888L12.5813 24.0147C12.5813 24.5587 12.476 25.0773 12.2827 25.5507L12.292 25.5227C12.1206 25.9257 11.8588 26.2838 11.5268 26.5694C11.1947 26.8549 10.8014 27.0602 10.3773 27.1693L10.3573 27.1733C9.89464 27.3093 9.41665 27.3864 8.93467 27.4027H8.924C8.32064 27.4369 7.72587 27.2473 7.2537 26.8701C6.78153 26.4929 6.46519 25.9547 6.36533 25.3587L6.364 25.344C6.26068 24.7789 6.35564 24.1955 6.63284 23.6924C6.91004 23.1892 7.35247 22.7972 7.88533 22.5827L7.90267 22.5773C8.36468 22.3954 8.84342 22.2592 9.332 22.1707L9.38 22.164C9.76267 22.084 10.1467 22.0093 10.5267 21.928C10.7488 21.8959 10.952 21.7849 11.0989 21.6152C11.2459 21.4455 11.3267 21.2285 11.3267 21.004V20.9747V20.976V8.92267C11.3267 8.75023 11.3462 8.584 11.3853 8.42401L11.3827 8.43867C11.4255 8.26712 11.5161 8.11125 11.644 7.98921C11.772 7.86718 11.932 7.78399 12.1053 7.74934L12.1107 7.748C12.4507 7.66001 12.7973 7.59867 13.1427 7.52801C14.1204 7.32623 15.0982 7.12889 16.076 6.936L19.1027 6.32267C19.996 6.144 20.8893 5.96267 21.7827 5.78934C22.024 5.73334 22.3253 5.68401 22.632 5.65067L22.668 5.64801C22.7596 5.63657 22.8525 5.64455 22.9408 5.67141C23.0291 5.69828 23.1107 5.74342 23.1804 5.80392C23.2501 5.86442 23.3062 5.9389 23.3452 6.02254C23.3842 6.10617 23.4051 6.19708 23.4067 6.28934C23.4173 6.37867 23.4227 6.48134 23.4227 6.58534V14.2293L23.432 14.2347Z" fill="black"/>
</g>
<defs>
<clipPath id="clip0_12_30">
<rect width="32.0015" height="31.9987" fill="white" transform="translate(0 0.750671)"/>
</clipPath>
</defs>
</svg>
