<svg width="33" height="23" viewBox="0 0 33 23" fill="none" xmlns="http://www.w3.org/2000/svg">
<path d="M15.4432 20.4218C16.4265 20.4218 17.221 19.6274 17.221 18.6441C17.221 17.6607 16.4265 16.8663 15.4432 16.8663H9.22097C8.23763 16.8663 7.44319 16.0718 7.44319 15.0885V7.9774H9.22097C9.93763 7.9774 10.5876 7.54407 10.8654 6.8774C11.1432 6.21073 10.9876 5.44962 10.4821 4.93851L6.92652 1.38295C6.23208 0.68851 5.1043 0.68851 4.40986 1.38295L0.854301 4.93851C0.34319 5.44962 0.19319 6.21073 0.470967 6.8774C0.748745 7.54407 1.39319 7.9774 2.11541 7.9774H3.89319V15.0885C3.89319 18.033 6.28208 20.4218 9.22652 20.4218H15.4432ZM17.221 2.64407C16.2376 2.64407 15.4432 3.43851 15.4432 4.42184C15.4432 5.40518 16.2376 6.19962 17.221 6.19962H23.4432C24.4265 6.19962 25.221 6.99407 25.221 7.9774V15.0885H23.4432C22.7265 15.0885 22.0765 15.5218 21.7987 16.1885C21.521 16.8552 21.6765 17.6163 22.1821 18.1274L25.7376 21.683C26.4321 22.3774 27.5599 22.3774 28.2543 21.683L31.8099 18.1274C32.321 17.6163 32.471 16.8552 32.1932 16.1885C31.9154 15.5218 31.271 15.0885 30.5487 15.0885H28.771V7.9774C28.771 5.03295 26.3821 2.64407 23.4376 2.64407H17.221Z" fill="#D4AF37"/>
</svg>
