<svg width="23" height="23" viewBox="0 0 23 23" fill="none" xmlns="http://www.w3.org/2000/svg">
<path fill-rule="evenodd" clip-rule="evenodd" d="M18.3333 8.06891C21 9.60891 21 13.4569 18.3333 14.9969L6.33331 21.9249C3.66665 23.4649 0.333313 21.5409 0.333313 18.4609V4.60491C0.333313 1.52491 3.66665 -0.399092 6.33331 1.14091L18.3333 8.06891ZM23 2.19958C23 1.84595 22.8595 1.50681 22.6095 1.25677C22.3594 1.00672 22.0203 0.866242 21.6666 0.866242C21.313 0.866242 20.9739 1.00672 20.7238 1.25677C20.4738 1.50681 20.3333 1.84595 20.3333 2.19958V20.8662C20.3333 21.2199 20.4738 21.559 20.7238 21.8091C20.9739 22.0591 21.313 22.1996 21.6666 22.1996C22.0203 22.1996 22.3594 22.0591 22.6095 21.8091C22.8595 21.559 23 21.2199 23 20.8662V2.19958Z" fill="#2A7343"/>
</svg>
