<svg width="20" height="23" viewBox="0 0 20 23" fill="none" xmlns="http://www.w3.org/2000/svg">
<path d="M5.99996 0.866272H3.33329C2.62605 0.866272 1.94777 1.14722 1.44767 1.64732C0.947577 2.14742 0.666626 2.82569 0.666626 3.53294V19.5329C0.666626 20.2402 0.947577 20.9185 1.44767 21.4186C1.94777 21.9187 2.62605 22.1996 3.33329 22.1996H5.99996C6.7072 22.1996 7.38548 21.9187 7.88558 21.4186C8.38567 20.9185 8.66663 20.2402 8.66663 19.5329V3.53294C8.66663 2.82569 8.38567 2.14742 7.88558 1.64732C7.38548 1.14722 6.7072 0.866272 5.99996 0.866272ZM16.6666 0.866272H14C13.2927 0.866272 12.6144 1.14722 12.1143 1.64732C11.6142 2.14742 11.3333 2.82569 11.3333 3.53294V19.5329C11.3333 20.2402 11.6142 20.9185 12.1143 21.4186C12.6144 21.9187 13.2927 22.1996 14 22.1996H16.6666C17.3739 22.1996 18.0521 21.9187 18.5522 21.4186C19.0523 20.9185 19.3333 20.2402 19.3333 19.5329V3.53294C19.3333 2.82569 19.0523 2.14742 18.5522 1.64732C18.0521 1.14722 17.3739 0.866272 16.6666 0.866272Z" fill="#D4AF37"/>
</svg>
